<?xml version="1.0" standalone="no"?>
<!DOCTYPE svg PUBLIC "-//W3C//DTD SVG 20010904//EN"
 "http://www.w3.org/TR/2001/REC-SVG-20010904/DTD/svg10.dtd">
<svg version="1.0" xmlns="http://www.w3.org/2000/svg"
 width="64.000000pt" height="64.000000pt" viewBox="0 0 64.000000 64.000000"
 preserveAspectRatio="xMidYMid meet">

<g transform="translate(0.000000,64.000000) scale(0.100000,-0.100000)"
fill="#000000" stroke="none">
<path d="M130 610 c-19 -19 -20 -33 -20 -310 l0 -290 210 0 210 0 0 260 c0
253 -1 260 -20 260 -17 0 -20 7 -20 50 l0 50 -170 0 c-157 0 -172 -2 -190 -20z
m340 -40 l0 -40 -158 0 c-161 0 -182 5 -182 40 0 35 21 40 182 40 l158 0 0
-40z m-134 -60 l174 0 0 -240 0 -240 -190 0 -190 0 0 246 c0 220 2 246 16 240
9 -3 94 -6 190 -6z"/>
<path d="M210 580 c0 -6 45 -10 115 -10 70 0 115 4 115 10 0 6 -45 10 -115 10
-70 0 -115 -4 -115 -10z"/>
<path d="M180 550 c0 -6 35 -10 85 -10 50 0 85 4 85 10 0 6 -35 10 -85 10 -50
0 -85 -4 -85 -10z"/>
<path d="M360 550 c0 -5 9 -10 20 -10 11 0 20 5 20 10 0 6 -9 10 -20 10 -11 0
-20 -4 -20 -10z"/>
<path d="M150 300 l0 -110 170 0 170 0 0 110 0 110 -170 0 -170 0 0 -110z
m320 0 l0 -90 -150 0 -150 0 0 90 0 90 150 0 150 0 0 -90z"/>
<path d="M200 300 c0 -33 4 -60 10 -60 6 0 10 11 10 25 0 18 5 25 20 25 15 0
20 -7 20 -25 0 -14 5 -25 10 -25 6 0 10 27 10 60 l0 60 -40 0 -40 0 0 -60z
m60 25 c0 -8 -9 -15 -20 -15 -11 0 -20 7 -20 15 0 8 9 15 20 15 11 0 20 -7 20
-15z"/>
<path d="M360 350 c0 -5 12 -10 26 -10 l26 0 -26 -44 c-14 -25 -26 -47 -26
-50 0 -3 18 -6 40 -6 22 0 40 5 40 10 0 6 -12 10 -26 10 l-26 0 26 44 c14 25
26 47 26 50 0 3 -18 6 -40 6 -22 0 -40 -4 -40 -10z"/>
<path d="M290 300 c0 -5 14 -10 30 -10 17 0 30 5 30 10 0 6 -13 10 -30 10 -16
0 -30 -4 -30 -10z"/>
</g>
</svg>
